<svg width="737" height="145" xmlns="http://www.w3.org/2000/svg" xmlns:xlink="http://www.w3.org/1999/xlink" xml:space="preserve" overflow="hidden"><defs><clipPath id="clip0"><rect x="1832" y="1165" width="737" height="145"/></clipPath></defs><g clip-path="url(#clip0)" transform="translate(-1832 -1165)"><path d="M1832 1198.3C1832 1179.91 1846.91 1165 1865.3 1165L1943.7 1165C1962.09 1165 1977 1179.91 1977 1198.3L1977 1276.7C1977 1295.09 1962.09 1310 1943.7 1310L1865.3 1310C1846.91 1310 1832 1295.09 1832 1276.7Z" fill="#098AFF" fill-rule="evenodd"/><path d="M1916.89 1282.69C1913.85 1282.69 1910.81 1282.85 1907.81 1282.69 1906.58 1282.59 1904.75 1281.89 1904.42 1281.07 1904.12 1279.7 1904.46 1278.28 1905.35 1277.19 1910.13 1271.7 1915.07 1266.37 1920.03 1261.04 1922.15 1258.71 1922.15 1257.53 1920.03 1255.32 1908.25 1243.41 1896.42 1231.52 1884.72 1219.53 1883.65 1218.37 1883.02 1216.88 1882.92 1215.32 1882.72 1208.86 1882.74 1202.3 1882.92 1195.79 1882.99 1194.4 1883.64 1193.1 1884.7 1192.2 1886.13 1191.18 1887.52 1192.2 1888.72 1193.44 1902.31 1207.39 1915.93 1221.3 1929.59 1235.17L1947.99 1253.98C1950.38 1256.37 1950.38 1260.24 1947.99 1262.64 1941.94 1268.87 1935.96 1275.17 1929.82 1281.33 1928.78 1282.2 1927.48 1282.71 1926.12 1282.77 1922.96 1282.83 1919.98 1282.69 1916.89 1282.69Z" fill="#FFFFFF" fill-rule="evenodd"/><path d="M1858.79 1245.08C1858.79 1234.03 1858.79 1222.99 1858.79 1211.94 1858.7 1210.09 1859.44 1208.29 1860.8 1207.03 1865.29 1202.65 1869.67 1198.17 1874.09 1193.75 1875.16 1192.67 1876.16 1191.27 1878.02 1191.98 1879.88 1192.68 1879.94 1194.36 1879.92 1196.03L1879.68 1257.41C1879.68 1261.07 1880.33 1261.69 1883.99 1261.69L1908.86 1261.69C1910.38 1261.69 1911.9 1261.69 1912.56 1263.3 1913.22 1264.91 1912.27 1266.07 1911.14 1267.14 1906.13 1271.85 1901.19 1276.65 1896.12 1281.29 1895.16 1282.14 1893.94 1282.63 1892.66 1282.71 1882.67 1282.82 1872.67 1282.8 1862.69 1282.71 1859.75 1282.71 1858.83 1281.72 1858.82 1278.76 1858.79 1267.58 1858.77 1256.35 1858.79 1245.08Z" fill="#FFFFFF" fill-rule="evenodd"/><path d="M1949.77 1217.96C1949.77 1225.27 1949.77 1232.58 1949.77 1239.91 1949.77 1241.53 1949.63 1242.98 1948.03 1243.59 1946.61 1244.08 1945.05 1243.59 1944.15 1242.38 1939.63 1237.65 1934.97 1233.05 1930.5 1228.27 1929.58 1227.27 1929.02 1225.98 1928.91 1224.62 1928.73 1219.96 1928.75 1215.28 1928.91 1210.61 1928.98 1209.41 1929.45 1208.27 1930.24 1207.37 1934.91 1202.49 1939.64 1197.62 1944.53 1192.91 1945.51 1191.63 1947.32 1191.41 1948.57 1192.41 1949.36 1193.05 1949.77 1194.06 1949.65 1195.08 1949.84 1202.69 1949.77 1210.32 1949.77 1217.96Z" fill="#FFFFFF" fill-rule="evenodd"/><path d="M2026.6 1284.76C2020.06 1284.79 2013.54 1283.95 2007.23 1282.25 2005.04 1281.67 2002.88 1280.98 2000.77 1280.17 1996.09 1278.34 1993.79 1273.04 1995.61 1268.35 1995.67 1268.2 1995.73 1268.06 1995.8 1267.92L1995.96 1267.56C1998 1263 2003.29 1260.92 2007.87 1262.86 2009.33 1263.46 2010.86 1264.01 2012.44 1264.48 2017.04 1265.98 2021.85 1266.74 2026.68 1266.75 2029.28 1266.83 2031.88 1266.56 2034.41 1265.94 2036 1265.58 2037.45 1264.77 2038.6 1263.61 2039.48 1262.62 2039.96 1261.32 2039.94 1259.99 2039.93 1258.21 2038.95 1256.57 2037.38 1255.73 2035.29 1254.52 2033.04 1253.62 2030.7 1253.04 2027.94 1252.3 2024.95 1251.61 2021.74 1250.95 2018.42 1250.26 2015.15 1249.38 2011.92 1248.32 2008.72 1247.3 2005.67 1245.84 2002.85 1243.99 2000.14 1242.21 1997.89 1239.81 1996.28 1236.99 1994.51 1233.66 1993.65 1229.92 1993.79 1226.15 1993.75 1221.45 1995.13 1216.85 1997.73 1212.95 2000.74 1208.69 2004.9 1205.37 2009.71 1203.39 2016.06 1200.8 2022.88 1199.58 2029.73 1199.81 2035.04 1199.8 2040.32 1200.41 2045.49 1201.61 2047.1 1202 2048.72 1202.47 2050.33 1202.99 2055.11 1204.63 2057.65 1209.85 2056.01 1214.64 2055.95 1214.83 2055.88 1215.01 2055.81 1215.19L2055.81 1215.19C2054 1219.72 2048.96 1222.02 2044.38 1220.41 2043.13 1219.96 2041.91 1219.57 2040.68 1219.24 2037.08 1218.26 2033.37 1217.75 2029.64 1217.72 2027.04 1217.64 2024.45 1217.99 2021.97 1218.77 2020.35 1219.27 2018.9 1220.2 2017.79 1221.46 2016.97 1222.45 2016.52 1223.69 2016.51 1224.97 2016.48 1226.79 2017.46 1228.48 2019.06 1229.34 2021.12 1230.53 2023.36 1231.39 2025.68 1231.9 2028.39 1232.56 2031.4 1233.24 2034.69 1233.95 2038.01 1234.65 2041.29 1235.53 2044.52 1236.57 2047.69 1237.59 2050.71 1239 2053.53 1240.77 2056.26 1242.51 2058.55 1244.87 2060.21 1247.66 2062.02 1250.92 2062.9 1254.61 2062.76 1258.34 2062.78 1263.02 2061.39 1267.6 2058.76 1271.47 2055.74 1275.75 2051.57 1279.09 2046.73 1281.1 2040.35 1283.72 2033.49 1284.97 2026.6 1284.76Z" fill="#FFFFFF" fill-rule="evenodd"/><path d="M2104.22 1283.78C2097.87 1283.9 2091.58 1282.47 2085.91 1279.61 2080.76 1276.98 2076.42 1273 2073.35 1268.09 2067.26 1257.72 2067.26 1244.86 2073.35 1234.49 2076.41 1229.57 2080.76 1225.58 2085.91 1222.95 2097.5 1217.39 2110.99 1217.39 2122.58 1222.95 2127.77 1225.57 2132.14 1229.56 2135.21 1234.49 2141.3 1244.86 2141.3 1257.72 2135.21 1268.09 2132.13 1273.01 2127.76 1276.99 2122.58 1279.61 2116.89 1282.46 2110.59 1283.9 2104.22 1283.78ZM2104.22 1266.29C2106.56 1266.32 2108.86 1265.72 2110.88 1264.55 2112.92 1263.31 2114.56 1261.53 2115.63 1259.4 2116.89 1256.86 2117.5 1254.05 2117.43 1251.22 2117.52 1248.43 2116.9 1245.67 2115.63 1243.18 2112.34 1236.88 2104.56 1234.44 2098.26 1237.73 2095.93 1238.95 2094.03 1240.85 2092.82 1243.18 2091.54 1245.66 2090.92 1248.43 2091.01 1251.22 2090.93 1254.06 2091.55 1256.86 2092.82 1259.4 2093.9 1261.54 2095.57 1263.33 2097.64 1264.55 2099.64 1265.71 2101.91 1266.31 2104.22 1266.29Z" fill="#FFFFFF" fill-rule="evenodd"/><path d="M2149.78 1269.07 2149.78 1205.09C2149.79 1200.5 2153.51 1196.78 2158.1 1196.78L2163.46 1196.78C2168.05 1196.78 2171.78 1200.51 2171.78 1205.11 2171.78 1205.11 2171.78 1205.12 2171.78 1205.12L2171.78 1281.96C2171.78 1282.42 2171.41 1282.78 2170.96 1282.78L2163.46 1282.78C2155.91 1282.79 2149.79 1276.68 2149.78 1269.13 2149.78 1269.11 2149.78 1269.09 2149.78 1269.07Z" fill="#FFFFFF" fill-rule="evenodd"/><path d="M2212.77 1283.78C2207.96 1283.86 2203.2 1282.83 2198.86 1280.77 2194.72 1278.72 2191.35 1275.4 2189.26 1271.32 2186.77 1266.21 2185.58 1260.57 2185.8 1254.91L2185.8 1239C2185.8 1228.39 2194.49 1219.79 2205.21 1219.78L2208.08 1219.78 2208.08 1251.31C2208.08 1256.19 2209 1259.69 2210.83 1261.81 2212.8 1264 2215.67 1265.19 2218.63 1265.03 2220.74 1265.06 2222.81 1264.54 2224.66 1263.52 2226.58 1262.42 2228.09 1260.73 2228.94 1258.69 2230.05 1256.03 2230.57 1253.16 2230.47 1250.28L2230.47 1219.78 2233.24 1219.78C2244.03 1219.78 2252.78 1228.44 2252.78 1239.11L2252.78 1266.19C2252.76 1275.35 2245.24 1282.75 2235.99 1282.73 2235.97 1282.73 2235.94 1282.73 2235.92 1282.73L2231.58 1282.73 2231.58 1265.02 2235.68 1269.99C2233.67 1274.36 2230.32 1277.99 2226.12 1280.38 2222.04 1282.64 2217.44 1283.81 2212.77 1283.78Z" fill="#FFFFFF" fill-rule="evenodd"/><path d="M2260.78 1235.47 2260.78 1228.81C2260.78 1225.2 2263.7 1222.28 2267.3 1222.28L2300.81 1222.28C2303.79 1222.28 2306.2 1224.7 2306.2 1227.68L2306.2 1231.67C2306.18 1235.54 2303.06 1238.66 2299.2 1238.68L2264.02 1238.68C2262.25 1238.7 2260.8 1237.28 2260.78 1235.5 2260.78 1235.49 2260.78 1235.48 2260.78 1235.47ZM2295.36 1283.7C2287.33 1283.7 2281.1 1281.73 2276.62 1277.74 2272.13 1273.75 2269.92 1267.77 2269.92 1259.75L2269.92 1214.72C2269.92 1209.79 2273.92 1205.78 2278.85 1205.78L2285.5 1205.78C2289.05 1205.78 2291.92 1208.66 2291.92 1212.22L2291.92 1259.42C2291.78 1261.4 2292.42 1263.36 2293.71 1264.87 2294.98 1266.14 2296.73 1266.81 2298.52 1266.72 2300.91 1266.77 2303.26 1266.08 2305.24 1264.75L2310.78 1280.04C2308.65 1281.4 2306.28 1282.36 2303.79 1282.87 2301.02 1283.48 2298.2 1283.78 2295.36 1283.78Z" fill="#FFFFFF" fill-rule="evenodd"/><path d="M2330.28 1213.01C2326.36 1213.23 2322.54 1211.78 2319.79 1209 2317.69 1206.72 2316.62 1203.69 2316.8 1200.6 2316.91 1197.69 2318.23 1194.95 2320.43 1193.03 2323.19 1190.75 2326.7 1189.6 2330.28 1189.81 2333.86 1189.63 2337.39 1190.77 2340.18 1193.03 2342.65 1195.23 2343.97 1198.44 2343.76 1201.73 2343.62 1204.72 2342.31 1207.54 2340.1 1209.58 2337.41 1211.97 2333.88 1213.2 2330.28 1213.01ZM2319.22 1273.94 2319.22 1230.5C2319.22 1224.64 2323.99 1219.89 2329.87 1219.89L2332.49 1219.89C2337.37 1219.89 2341.33 1223.83 2341.33 1228.69L2341.33 1273.98C2341.34 1278.83 2337.4 1282.77 2332.52 1282.78 2332.51 1282.78 2332.5 1282.78 2332.49 1282.78L2328.06 1282.78C2323.19 1282.79 2319.23 1278.87 2319.22 1274.02 2319.22 1273.99 2319.22 1273.96 2319.22 1273.94Z" fill="#FFFFFF" fill-rule="evenodd"/><path d="M2387.22 1283.78C2380.87 1283.9 2374.59 1282.47 2368.91 1279.61 2363.76 1276.98 2359.42 1273 2356.35 1268.09 2350.26 1257.72 2350.26 1244.86 2356.35 1234.49 2359.41 1229.57 2363.76 1225.58 2368.91 1222.95 2380.5 1217.39 2393.99 1217.39 2405.58 1222.95 2410.77 1225.57 2415.14 1229.56 2418.21 1234.49 2424.3 1244.86 2424.3 1257.72 2418.21 1268.09 2415.13 1273.01 2410.76 1276.99 2405.58 1279.61 2399.89 1282.46 2393.59 1283.9 2387.22 1283.78ZM2387.22 1266.29C2389.56 1266.32 2391.86 1265.72 2393.88 1264.55 2395.92 1263.31 2397.56 1261.52 2398.63 1259.4 2399.89 1256.86 2400.5 1254.05 2400.43 1251.22 2400.52 1248.43 2399.9 1245.67 2398.63 1243.18 2396.41 1238.95 2391.99 1236.35 2387.22 1236.45 2382.45 1236.35 2378.03 1238.95 2375.82 1243.18 2374.54 1245.66 2373.92 1248.43 2374.01 1251.22 2373.93 1254.06 2374.55 1256.86 2375.82 1259.4 2376.87 1261.53 2378.52 1263.32 2380.56 1264.55 2382.58 1265.72 2384.89 1266.32 2387.22 1266.29Z" fill="#FFFFFF" fill-rule="evenodd"/><path d="M2474.75 1218.79C2479.35 1218.73 2483.88 1219.76 2487.99 1221.8 2491.95 1223.83 2495.21 1227.02 2497.32 1230.95 2499.8 1235.86 2500.98 1241.32 2500.75 1246.81L2500.75 1282.72 2493.3 1282.72C2485.18 1282.73 2478.6 1276.17 2478.59 1268.06 2478.59 1268.05 2478.59 1268.04 2478.59 1268.03L2478.59 1250.42C2478.59 1245.92 2477.67 1242.66 2475.85 1240.62 2473.98 1238.55 2471.27 1237.42 2468.48 1237.55 2466.23 1237.53 2464.02 1238.09 2462.03 1239.15 2460.05 1240.24 2458.46 1241.93 2457.51 1243.98 2456.33 1246.68 2455.76 1249.61 2455.89 1252.56L2455.89 1268.76C2455.91 1276.49 2449.62 1282.77 2441.87 1282.78 2441.86 1282.78 2441.85 1282.78 2441.84 1282.78L2433.78 1282.78 2433.78 1236.74C2433.79 1227.4 2441.38 1219.83 2450.74 1219.83L2454.86 1219.83 2454.86 1237.79 2450.69 1232.58C2452.9 1228.27 2456.33 1224.71 2460.55 1222.33 2464.89 1219.92 2469.79 1218.7 2474.75 1218.79Z" fill="#FFFFFF" fill-rule="evenodd"/><path d="M2537.53 1283.76C2532.26 1283.78 2527 1283.16 2521.86 1281.91 2520.36 1281.54 2518.95 1281.16 2517.62 1280.74 2513.38 1279.33 2511.1 1274.77 2512.52 1270.56 2512.59 1270.34 2512.67 1270.13 2512.77 1269.92L2512.77 1269.79C2514.43 1265.94 2518.8 1264 2522.8 1265.35 2524 1265.77 2525.25 1266.17 2526.53 1266.51 2530.31 1267.57 2534.25 1268.11 2538.18 1268.12 2540.82 1268.31 2543.48 1267.9 2545.94 1266.91 2547.23 1266.31 2548.07 1265.02 2548.09 1263.6 2548.06 1262.39 2547.26 1261.34 2546.11 1260.95 2544.41 1260.23 2542.6 1259.78 2540.76 1259.61 2538.49 1259.34 2536.06 1259.03 2533.47 1258.68 2530.78 1258.32 2528.11 1257.78 2525.49 1257.07 2522.88 1256.39 2520.39 1255.36 2518.07 1254 2515.86 1252.68 2514.03 1250.8 2512.78 1248.55 2511.36 1245.84 2510.68 1242.81 2510.79 1239.75 2510.74 1235.89 2511.99 1232.12 2514.35 1229.04 2517.07 1225.67 2520.65 1223.09 2524.73 1221.58 2530.1 1219.58 2535.82 1218.64 2541.56 1218.8 2546.1 1218.81 2550.6 1219.28 2555.03 1220.18 2555.99 1220.39 2556.91 1220.6 2557.8 1220.83 2562.12 1221.96 2564.72 1226.35 2563.57 1230.65 2563.47 1231.06 2563.32 1231.47 2563.15 1231.86L2563.15 1231.86C2561.51 1235.57 2557.33 1237.48 2553.43 1236.33 2552.49 1236.03 2551.54 1235.78 2550.57 1235.59 2547.7 1235 2544.77 1234.68 2541.84 1234.66 2539.12 1234.49 2536.38 1234.9 2533.84 1235.88 2532.52 1236.34 2531.58 1237.55 2531.46 1238.95 2531.5 1240.23 2532.32 1241.36 2533.55 1241.78 2535.27 1242.53 2537.08 1243.03 2538.93 1243.29 2541.1 1243.63 2543.52 1243.98 2546.21 1244.34 2548.9 1244.7 2551.57 1245.24 2554.19 1245.94 2556.73 1246.6 2559.18 1247.63 2561.41 1249.02 2563.6 1250.37 2565.43 1252.24 2566.72 1254.45 2568.2 1257.17 2568.89 1260.23 2568.76 1263.31 2568.78 1267.04 2567.55 1270.66 2565.27 1273.62 2562.53 1277 2558.89 1279.56 2554.78 1281.01 2549.25 1283.01 2543.41 1283.94 2537.53 1283.76Z" fill="#FFFFFF" fill-rule="evenodd"/></g></svg>