<svg width="2534" height="500" xmlns="http://www.w3.org/2000/svg" xmlns:xlink="http://www.w3.org/1999/xlink" xml:space="preserve" overflow="hidden"><g transform="translate(-932 -987)"><path d="M932.338 1102.18C932.338 1038.89 983.649 987.579 1046.94 987.579L1316.74 987.579C1380.03 987.579 1431.34 1038.89 1431.34 1102.18L1431.34 1371.98C1431.34 1435.27 1380.03 1486.58 1316.74 1486.58L1046.94 1486.58C983.649 1486.58 932.338 1435.27 932.338 1371.98Z" fill="#FFFFFF" fill-rule="evenodd"/><path d="M1224.43 1392.25C1214 1392.25 1203.56 1392.8 1193.27 1392.25 1189.04 1391.91 1182.76 1389.5 1181.63 1386.68 1180.6 1381.97 1181.77 1377.09 1184.82 1373.34 1201.23 1354.45 1218.19 1336.12 1235.21 1317.79 1242.49 1309.77 1242.49 1305.72 1235.21 1298.11 1194.78 1257.15 1154.17 1216.25 1114.01 1175.02 1110.34 1171.03 1108.17 1165.9 1107.83 1160.53 1107.14 1138.32 1107.21 1115.75 1107.83 1093.36 1108.07 1088.58 1110.3 1084.11 1113.94 1081.01 1118.85 1077.51 1123.62 1081.01 1127.74 1085.28 1174.39 1133.26 1221.14 1181.1 1268.03 1228.81L1331.19 1293.51C1339.39 1301.73 1339.39 1315.04 1331.19 1323.29 1310.42 1344.72 1289.89 1366.39 1268.82 1387.58 1265.25 1390.57 1260.78 1392.32 1256.12 1392.53 1245.27 1392.73 1235.04 1392.25 1224.43 1392.25Z" fill-rule="evenodd"/><path d="M1024.37 1262.89C1024.37 1224.88 1024.37 1186.91 1024.37 1148.9 1024.06 1142.53 1026.6 1136.34 1031.29 1132.01 1046.76 1116.94 1061.84 1101.53 1077.07 1086.33 1080.76 1082.62 1084.2 1077.8 1090.61 1080.24 1097.02 1082.65 1097.22 1088.43 1097.15 1094.17L1096.33 1305.3C1096.33 1317.89 1098.56 1320.02 1111.17 1320.02L1196.84 1320.02C1202.08 1320.02 1207.32 1320.02 1209.59 1325.56 1211.86 1331.1 1208.59 1335.09 1204.7 1338.77 1187.44 1354.97 1170.42 1371.48 1152.96 1387.44 1149.65 1390.36 1145.45 1392.05 1141.04 1392.32 1106.63 1392.7 1072.18 1392.63 1037.8 1392.32 1027.67 1392.32 1024.5 1388.92 1024.47 1378.73 1024.37 1340.28 1024.3 1301.65 1024.37 1262.89Z" fill-rule="evenodd"/><path d="M1337.3 1169.7C1337.3 1194.86 1337.3 1220.03 1337.3 1245.26 1337.3 1250.84 1336.82 1255.83 1331.33 1257.93 1326.46 1259.62 1321.11 1257.93 1318.03 1253.77 1302.53 1237.48 1286.55 1221.65 1271.23 1205.19 1268.08 1201.75 1266.16 1197.31 1265.78 1192.62 1265.16 1176.58 1265.23 1160.47 1265.78 1144.39 1266.02 1140.26 1267.63 1136.34 1270.34 1133.24 1286.35 1116.44 1302.57 1099.67 1319.33 1083.46 1322.69 1079.05 1328.9 1078.29 1333.18 1081.73 1335.89 1083.94 1337.3 1087.42 1336.89 1090.93 1337.54 1117.13 1337.3 1143.39 1337.3 1169.7Z" fill-rule="evenodd"/><path d="M1601.56 1399.5C1579 1399.61 1556.51 1396.72 1534.75 1390.88 1527.19 1388.89 1519.74 1386.52 1512.46 1383.73 1496.32 1377.45 1488.39 1359.24 1494.66 1343.13 1494.87 1342.61 1495.08 1342.13 1495.32 1341.65L1495.87 1340.42C1502.91 1324.75 1521.16 1317.6 1536.95 1324.27 1541.99 1326.33 1547.27 1328.22 1552.72 1329.83 1568.58 1334.99 1585.18 1337.6 1601.84 1337.63 1610.8 1337.91 1619.77 1336.98 1628.5 1334.85 1633.98 1333.61 1638.98 1330.83 1642.95 1326.85 1645.99 1323.44 1647.64 1318.98 1647.57 1314.41 1647.54 1308.29 1644.16 1302.66 1638.74 1299.78 1631.53 1295.62 1623.77 1292.53 1615.7 1290.53 1606.18 1287.99 1595.87 1285.62 1584.8 1283.35 1573.34 1280.98 1562.06 1277.96 1550.92 1274.32 1539.89 1270.82 1529.37 1265.8 1519.64 1259.45 1510.29 1253.33 1502.53 1245.09 1496.98 1235.4 1490.87 1223.96 1487.9 1211.11 1488.39 1198.16 1488.25 1182.01 1493.01 1166.21 1501.98 1152.81 1512.36 1138.18 1526.71 1126.77 1543.3 1119.97 1565.2 1111.07 1588.73 1106.88 1612.36 1107.67 1630.67 1107.64 1648.88 1109.73 1666.72 1113.86 1672.27 1115.2 1677.86 1116.81 1683.41 1118.6 1699.9 1124.23 1708.66 1142.16 1703 1158.62 1702.8 1159.27 1702.56 1159.89 1702.31 1160.51L1702.31 1160.51C1696.07 1176.07 1678.69 1183.97 1662.89 1178.44 1658.58 1176.89 1654.37 1175.55 1650.13 1174.42 1637.71 1171.05 1624.91 1169.3 1612.05 1169.2 1603.08 1168.93 1594.14 1170.13 1585.59 1172.81 1580 1174.52 1575 1177.72 1571.17 1182.05 1568.34 1185.45 1566.79 1189.71 1566.76 1194.11 1566.65 1200.36 1570.03 1206.16 1575.55 1209.12 1582.66 1213.21 1590.38 1216.16 1598.39 1217.91 1607.73 1220.18 1618.12 1222.52 1629.46 1224.95 1640.92 1227.36 1652.23 1230.38 1663.37 1233.95 1674.31 1237.46 1684.72 1242.3 1694.45 1248.38 1703.87 1254.36 1711.77 1262.47 1717.49 1272.05 1723.73 1283.25 1726.77 1295.93 1726.29 1308.74 1726.36 1324.82 1721.56 1340.55 1712.49 1353.85 1702.07 1368.55 1687.69 1380.02 1670.99 1386.93 1648.99 1395.93 1625.33 1400.22 1601.56 1399.5Z" fill="#FFFFFF" fill-rule="evenodd"/><path d="M1868.13 1396.55C1846.31 1396.97 1824.69 1392.04 1805.2 1382.19 1787.5 1373.12 1772.59 1359.41 1762.04 1342.49 1741.11 1306.76 1741.11 1262.44 1762.04 1226.71 1772.55 1209.76 1787.5 1196.01 1805.2 1186.95 1845.04 1167.79 1891.4 1167.79 1931.23 1186.95 1949.07 1195.98 1964.09 1209.72 1974.64 1226.71 1995.57 1262.44 1995.57 1306.76 1974.64 1342.49 1964.06 1359.44 1949.04 1373.16 1931.23 1382.19 1911.68 1392.01 1890.03 1396.97 1868.13 1396.55ZM1868.13 1336.29C1876.18 1336.39 1884.08 1334.32 1891.02 1330.29 1898.03 1326.02 1903.67 1319.89 1907.35 1312.55 1911.68 1303.79 1913.77 1294.11 1913.53 1284.36 1913.84 1274.75 1911.71 1265.24 1907.35 1256.66 1896.04 1234.95 1869.3 1226.54 1847.65 1237.88 1839.64 1242.08 1833.11 1248.63 1828.95 1256.66 1824.55 1265.2 1822.42 1274.75 1822.73 1284.36 1822.46 1294.15 1824.59 1303.79 1828.95 1312.55 1832.66 1319.92 1838.4 1326.09 1845.52 1330.29 1852.39 1334.29 1860.19 1336.36 1868.13 1336.29Z" fill="#FFFFFF" fill-rule="evenodd"/><path d="M2025.34 1345.55 2025.34 1126.09C2025.38 1110.34 2038.06 1097.58 2053.71 1097.58L2071.98 1097.58C2087.63 1097.58 2100.34 1110.38 2100.34 1126.15 2100.34 1126.15 2100.34 1126.19 2100.34 1126.19L2100.34 1389.77C2100.34 1391.35 2099.08 1392.58 2097.55 1392.58L2071.98 1392.58C2046.24 1392.61 2025.38 1371.66 2025.34 1345.76 2025.34 1345.69 2025.34 1345.62 2025.34 1345.55Z" fill="#FFFFFF" fill-rule="evenodd"/><path d="M2241.4 1396.56C2224.82 1396.84 2208.41 1393.3 2193.45 1386.22 2179.18 1379.17 2167.56 1367.76 2160.35 1353.74 2151.77 1336.17 2147.67 1316.79 2148.43 1297.33L2148.43 1242.64C2148.43 1206.17 2178.38 1176.61 2215.34 1176.58L2225.24 1176.58 2225.24 1284.96C2225.24 1301.73 2228.41 1313.76 2234.72 1321.05 2241.51 1328.58 2251.4 1332.67 2261.61 1332.12 2268.88 1332.22 2276.02 1330.43 2282.39 1326.93 2289.01 1323.14 2294.22 1317.34 2297.15 1310.32 2300.98 1301.18 2302.77 1291.32 2302.42 1281.42L2302.42 1176.58 2311.97 1176.58C2349.17 1176.58 2379.34 1206.35 2379.34 1243.02L2379.34 1336.1C2379.27 1367.59 2353.34 1393.02 2321.45 1392.96 2321.39 1392.96 2321.28 1392.96 2321.21 1392.96L2306.25 1392.96 2306.25 1332.08 2320.39 1349.16C2313.46 1364.19 2301.91 1376.66 2287.43 1384.88 2273.36 1392.65 2257.5 1396.67 2241.4 1396.56Z" fill="#FFFFFF" fill-rule="evenodd"/><path d="M2406.34 1229.97 2406.34 1207C2406.34 1194.55 2416.38 1184.48 2428.77 1184.48L2544.04 1184.48C2554.29 1184.48 2562.58 1192.83 2562.58 1203.11L2562.58 1216.87C2562.51 1230.21 2551.78 1240.97 2538.5 1241.04L2417.48 1241.04C2411.4 1241.11 2406.41 1236.21 2406.34 1230.07 2406.34 1230.04 2406.34 1230 2406.34 1229.97ZM2525.29 1396.3C2497.67 1396.3 2476.24 1389.51 2460.83 1375.75 2445.38 1361.99 2437.78 1341.36 2437.78 1313.71L2437.78 1158.41C2437.78 1141.41 2451.54 1127.58 2468.5 1127.58L2491.38 1127.58C2503.59 1127.58 2513.46 1137.51 2513.46 1149.79L2513.46 1312.57C2512.98 1319.4 2515.18 1326.16 2519.62 1331.36 2523.99 1335.74 2530.01 1338.05 2536.16 1337.74 2544.39 1337.92 2552.47 1335.54 2559.28 1330.95L2578.34 1383.68C2571.01 1388.37 2562.86 1391.68 2554.29 1393.44 2544.76 1395.54 2535.06 1396.58 2525.29 1396.58Z" fill="#FFFFFF" fill-rule="evenodd"/><path d="M2645.83 1152.5C2632.33 1153.25 2619.18 1148.26 2609.7 1138.7 2602.47 1130.85 2598.79 1120.42 2599.41 1109.79 2599.78 1099.78 2604.33 1090.35 2611.91 1083.74 2621.41 1075.9 2633.5 1071.94 2645.83 1072.66 2658.16 1072.04 2670.32 1075.97 2679.93 1083.74 2688.44 1091.31 2692.99 1102.36 2692.26 1113.68 2691.78 1123.97 2687.27 1133.67 2679.66 1140.69 2670.39 1148.92 2658.23 1153.15 2645.83 1152.5ZM2607.74 1362.16 2607.74 1212.68C2607.74 1192.52 2624.17 1176.17 2644.42 1176.17L2653.45 1176.17C2670.25 1176.17 2683.89 1189.73 2683.89 1206.45L2683.89 1362.3C2683.93 1378.99 2670.36 1392.54 2653.55 1392.58 2653.51 1392.58 2653.48 1392.58 2653.45 1392.58L2638.19 1392.58C2621.41 1392.61 2607.77 1379.12 2607.74 1362.44 2607.74 1362.33 2607.74 1362.23 2607.74 1362.16Z" fill="#FFFFFF" fill-rule="evenodd"/><path d="M2841.13 1396.55C2819.31 1396.97 2797.73 1392.04 2778.2 1382.19 2760.5 1373.12 2745.59 1359.41 2735.04 1342.49 2714.11 1306.76 2714.11 1262.44 2735.04 1226.71 2745.55 1209.76 2760.5 1196.01 2778.2 1186.95 2818.04 1167.79 2864.4 1167.79 2904.23 1186.95 2922.07 1195.98 2937.09 1209.72 2947.64 1226.71 2968.57 1262.44 2968.57 1306.76 2947.64 1342.49 2937.06 1359.44 2922.04 1373.16 2904.23 1382.19 2884.68 1392.01 2863.03 1396.97 2841.13 1396.55ZM2841.13 1336.29C2849.18 1336.39 2857.08 1334.32 2864.02 1330.29 2871.03 1326.02 2876.67 1319.85 2880.35 1312.55 2884.68 1303.79 2886.77 1294.11 2886.53 1284.36 2886.84 1274.75 2884.71 1265.24 2880.35 1256.66 2872.72 1242.08 2857.53 1233.12 2841.13 1233.47 2824.74 1233.12 2809.55 1242.08 2801.95 1256.66 2797.55 1265.2 2795.42 1274.75 2795.73 1284.36 2795.46 1294.15 2797.59 1303.79 2801.95 1312.55 2805.56 1319.89 2811.23 1326.05 2818.24 1330.29 2825.19 1334.32 2833.12 1336.39 2841.13 1336.29Z" fill="#FFFFFF" fill-rule="evenodd"/><path d="M3141.99 1172.6C3157.78 1172.39 3173.33 1175.93 3187.44 1182.94 3201.03 1189.92 3212.22 1200.89 3219.47 1214.4 3227.98 1231.28 3232.03 1250.05 3231.24 1268.92L3231.24 1392.37 3205.67 1392.37C3177.79 1392.41 3155.2 1369.86 3155.17 1341.98 3155.17 1341.94 3155.17 1341.91 3155.17 1341.87L3155.17 1281.33C3155.17 1265.86 3152.01 1254.66 3145.76 1247.64 3139.34 1240.53 3130.04 1236.64 3120.46 1237.09 3112.74 1237.02 3105.15 1238.94 3098.32 1242.59 3091.52 1246.34 3086.06 1252.15 3082.8 1259.19 3078.75 1268.48 3076.8 1278.55 3077.24 1288.69L3077.24 1344.38C3077.31 1370.96 3055.72 1392.55 3029.11 1392.58 3029.08 1392.58 3029.04 1392.58 3029.01 1392.58L3001.34 1392.58 3001.34 1234.3C3001.37 1202.19 3027.43 1176.17 3059.56 1176.17L3073.71 1176.17 3073.71 1237.91 3059.39 1220C3066.98 1205.19 3078.75 1192.95 3093.24 1184.76 3108.14 1176.48 3124.96 1172.29 3141.99 1172.6Z" fill="#FFFFFF" fill-rule="evenodd"/><path d="M3358.13 1396.5C3340.05 1396.57 3322 1394.44 3304.36 1390.13 3299.22 1388.85 3294.38 1387.54 3289.81 1386.1 3275.27 1381.24 3267.44 1365.52 3272.32 1351.01 3272.56 1350.26 3272.83 1349.53 3273.17 1348.81L3273.17 1348.36C3278.87 1335.09 3293.86 1328.41 3307.59 1333.06 3311.71 1334.51 3315.99 1335.89 3320.39 1337.06 3333.36 1340.71 3346.88 1342.57 3360.36 1342.6 3369.42 1343.26 3378.55 1341.85 3386.99 1338.43 3391.41 1336.37 3394.3 1331.92 3394.36 1327.03 3394.26 1322.86 3391.52 1319.24 3387.57 1317.9 3381.74 1315.41 3375.53 1313.86 3369.21 1313.28 3361.42 1312.35 3353.09 1311.28 3344.2 1310.07 3334.97 1308.83 3325.81 1306.97 3316.82 1304.52 3307.86 1302.18 3299.32 1298.63 3291.36 1293.94 3283.78 1289.4 3277.5 1282.92 3273.21 1275.16 3268.34 1265.82 3266 1255.38 3266.38 1244.84 3266.21 1231.53 3270.5 1218.54 3278.59 1207.93 3287.93 1196.31 3300.21 1187.42 3314.21 1182.22 3332.64 1175.33 3352.26 1172.09 3371.96 1172.64 3387.54 1172.67 3402.98 1174.29 3418.18 1177.39 3421.47 1178.12 3424.63 1178.84 3427.68 1179.63 3442.5 1183.53 3451.43 1198.66 3447.48 1213.48 3447.14 1214.89 3446.62 1216.3 3446.04 1217.65L3446.04 1217.65C3440.41 1230.43 3426.07 1237.01 3412.69 1233.05 3409.46 1232.02 3406.2 1231.16 3402.87 1230.5 3393.03 1228.47 3382.97 1227.36 3372.92 1227.3 3363.59 1226.71 3354.18 1228.12 3345.47 1231.5 3340.94 1233.08 3337.71 1237.25 3337.3 1242.08 3337.44 1246.49 3340.25 1250.38 3344.47 1251.83 3350.38 1254.42 3356.59 1256.14 3362.93 1257.04 3370.38 1258.21 3378.68 1259.41 3387.91 1260.65 3397.14 1261.89 3406.31 1263.76 3415.29 1266.17 3424.01 1268.44 3432.42 1271.99 3440.07 1276.78 3447.58 1281.43 3453.86 1287.88 3458.29 1295.5 3463.37 1304.87 3465.73 1315.41 3465.29 1326.03 3465.36 1338.88 3461.14 1351.36 3453.31 1361.56 3443.91 1373.21 3431.42 1382.03 3417.32 1387.03 3398.34 1393.92 3378.31 1397.12 3358.13 1396.5Z" fill="#FFFFFF" fill-rule="evenodd"/></g></svg>